<svg width="720" height="720" xmlns="http://www.w3.org/2000/svg" xmlns:xlink="http://www.w3.org/1999/xlink" xml:space="preserve" overflow="hidden"><g transform="translate(-280 0)"><path d="M469.762 383.472 548.685 383.472 548.685 708.387C548.685 714.802 553.883 720 560.298 720L694.116 720C700.531 720 705.729 714.802 705.729 708.387L705.729 385.003 796.458 385.003C802.358 385.003 807.321 380.576 807.995 374.716L821.774 255.098C822.153 251.807 821.11 248.511 818.908 246.043 816.704 243.571 813.55 242.157 810.241 242.157L705.734 242.157 705.734 167.175C705.734 144.571 717.904 133.109 741.91 133.109 745.331 133.109 810.241 133.109 810.241 133.109 816.655 133.109 821.853 127.909 821.853 121.497L821.853 11.6988C821.853 5.28387 816.655 0.0859355 810.241 0.0859355L716.071 0.0859355C715.407 0.0534194 713.932 0 711.758 0 695.419 0 638.625 3.20748 593.762 44.4797 544.054 90.216 550.964 144.978 552.615 154.473L552.615 242.155 469.762 242.155C463.347 242.155 458.149 247.353 458.149 253.767L458.149 371.857C458.149 378.272 463.347 383.472 469.762 383.472Z" fill="#7F7F7F"/></g></svg>